<svg width="48" height="48" viewBox="0 0 48 48" fill="none" xmlns="http://www.w3.org/2000/svg">
<g clip-path="url(#clip0_283_27)">
<path d="M28.9732 6.28603C29.4837 6.42962 29.9162 6.77005 30.1758 7.23248C30.4353 7.69492 30.5006 8.2415 30.3572 8.75203L21.4972 40.328C21.4263 40.581 21.3062 40.8174 21.1439 41.024C20.9816 41.2305 20.7802 41.4031 20.5512 41.5318C20.3223 41.6605 20.0702 41.7428 19.8093 41.7741C19.5485 41.8053 19.2841 41.7849 19.0312 41.714C18.7783 41.6431 18.5418 41.5231 18.3353 41.3608C18.1287 41.1985 17.9562 40.9971 17.8275 40.7681C17.6988 40.5391 17.6164 40.287 17.5852 40.0262C17.5539 39.7654 17.5743 39.501 17.6452 39.248L26.5052 7.67203C26.5761 7.41887 26.6962 7.18216 26.8586 6.97545C27.021 6.76874 27.2226 6.59608 27.4518 6.46735C27.6811 6.33862 27.9334 6.25635 28.1945 6.22524C28.4555 6.19412 28.7201 6.21478 28.9732 6.28603ZM14.4152 14.1C14.7901 14.4751 15.0008 14.9837 15.0008 15.514C15.0008 16.0444 14.7901 16.553 14.4152 16.928L7.3452 24L14.4152 31.07C14.601 31.2557 14.7484 31.4762 14.8491 31.7189C14.9497 31.9615 15.0015 32.2216 15.0016 32.4843C15.0017 32.747 14.95 33.0072 14.8496 33.2499C14.7492 33.4926 14.6019 33.7132 14.4162 33.899C14.2305 34.0849 14.01 34.2323 13.7674 34.3329C13.5247 34.4335 13.2646 34.4853 13.0019 34.4854C12.7392 34.4855 12.4791 34.4339 12.2363 34.3334C11.9936 34.233 11.773 34.0857 11.5872 33.9L3.1012 25.414C2.72626 25.039 2.51563 24.5304 2.51562 24C2.51562 23.4697 2.72626 22.9611 3.1012 22.586L11.5872 14.1C11.9623 13.7251 12.4709 13.5145 13.0012 13.5145C13.5315 13.5145 14.0401 13.7251 14.4152 14.1ZM33.5872 16.928C33.3962 16.7435 33.2438 16.5229 33.139 16.2788C33.0342 16.0348 32.979 15.7724 32.9767 15.5068C32.9744 15.2413 33.025 14.9779 33.1256 14.7321C33.2261 14.4863 33.3746 14.263 33.5624 14.0752C33.7502 13.8875 33.9735 13.739 34.2193 13.6384C34.4651 13.5378 34.7284 13.4872 34.994 13.4895C35.2596 13.4918 35.522 13.547 35.766 13.6518C36.01 13.7566 36.2307 13.909 36.4152 14.1L44.9012 22.586C45.2761 22.9611 45.4868 23.4697 45.4868 24C45.4868 24.5304 45.2761 25.039 44.9012 25.414L36.4152 33.9C36.0399 34.2751 35.531 34.4856 35.0005 34.4854C34.4699 34.4853 33.9612 34.2743 33.5862 33.899C33.2112 33.5238 33.0006 33.0149 33.0008 32.4843C33.001 31.9538 33.2119 31.4451 33.5872 31.07L40.6572 24L33.5872 16.928Z" fill="black"/>
</g>
<defs>
<clipPath id="clip0_283_27">
<rect width="48" height="48" fill="white"/>
</clipPath>
</defs>
</svg>
