<svg width="45" height="45" viewBox="0 0 48 48" fill="none" xmlns="http://www.w3.org/2000/svg">
<path d="M27 19.5C27 19.1022 27.158 18.7206 27.4393 18.4393C27.7206 18.158 28.1022 18 28.5 18H37.5C37.8978 18 38.2794 18.158 38.5607 18.4393C38.842 18.7206 39 19.1022 39 19.5C39 19.8978 38.842 20.2794 38.5607 20.5607C38.2794 20.842 37.8978 21 37.5 21H28.5C28.1022 21 27.7206 20.842 27.4393 20.5607C27.158 20.2794 27 19.8978 27 19.5ZM28.5 25.5C28.1022 25.5 27.7206 25.658 27.4393 25.9393C27.158 26.2206 27 26.6022 27 27C27 27.3978 27.158 27.7794 27.4393 28.0607C27.7206 28.342 28.1022 28.5 28.5 28.5H37.5C37.8978 28.5 38.2794 28.342 38.5607 28.0607C38.842 27.7794 39 27.3978 39 27C39 26.6022 38.842 26.2206 38.5607 25.9393C38.2794 25.658 37.8978 25.5 37.5 25.5H28.5ZM19.5 19.5C19.5 20.2956 19.1839 21.0587 18.6213 21.6213C18.0587 22.1839 17.2956 22.5 16.5 22.5C15.7044 22.5 14.9413 22.1839 14.3787 21.6213C13.8161 21.0587 13.5 20.2956 13.5 19.5C13.5 18.7044 13.8161 17.9413 14.3787 17.3787C14.9413 16.8161 15.7044 16.5 16.5 16.5C17.2956 16.5 18.0587 16.8161 18.6213 17.3787C19.1839 17.9413 19.5 18.7044 19.5 19.5ZM10.5 26.25C10.5 25.6533 10.7371 25.081 11.159 24.659C11.581 24.2371 12.1533 24 12.75 24H20.25C20.8467 24 21.419 24.2371 21.841 24.659C22.2629 25.081 22.5 25.6533 22.5 26.25C22.5 26.25 22.5 31.5 16.5 31.5C10.5 31.5 10.5 26.25 10.5 26.25ZM3 10.875C3 9.58207 3.51361 8.34209 4.42785 7.42785C5.34209 6.51361 6.58207 6 7.875 6H40.125C41.4179 6 42.6579 6.51361 43.5721 7.42785C44.4864 8.34209 45 9.58207 45 10.875V37.125C45 37.7652 44.8739 38.3991 44.6289 38.9906C44.3839 39.582 44.0248 40.1195 43.5721 40.5721C43.1195 41.0248 42.582 41.3839 41.9906 41.6289C41.3991 41.8739 40.7652 42 40.125 42H7.875C7.23481 42 6.60088 41.8739 6.00942 41.6289C5.41796 41.3839 4.88054 41.0248 4.42785 40.5721C3.97517 40.1195 3.61608 39.582 3.37109 38.9906C3.1261 38.3991 3 37.7652 3 37.125V10.875ZM7.875 9C6.84 9 6 9.84 6 10.875V37.125C6 38.16 6.84 39 7.875 39H40.125C41.16 39 42 38.16 42 37.125V10.875C42 9.84 41.16 9 40.125 9H7.875Z" fill="#1C1C1C"/>
</svg>
