<svg width="20" height="20" viewBox="0 0 20 20" fill="none" xmlns="http://www.w3.org/2000/svg">
<path d="M9.15382 14.7454C9.24122 14.8325 9.31056 14.936 9.35788 15.05C9.4052 15.1639 9.42956 15.2861 9.42956 15.4095C9.42956 15.5329 9.4052 15.655 9.35788 15.769C9.31056 15.883 9.24122 15.9864 9.15382 16.0735L8.75382 16.4735C8.3292 16.8997 7.82432 17.2375 7.26835 17.4674C6.71238 17.6972 6.11636 17.8145 5.51475 17.8126C4.60876 17.8129 3.72304 17.5445 2.96965 17.0413C2.21625 16.5381 1.62903 15.8227 1.28229 14.9857C0.935539 14.1487 0.844844 13.2276 1.02167 12.3391C1.1985 11.4505 1.63491 10.6343 2.27569 9.99386L4.99053 7.27901C5.56798 6.70165 6.28926 6.28912 7.07969 6.08413C7.87011 5.87915 8.70097 5.88915 9.48623 6.11311C10.2715 6.33708 10.9826 6.76686 11.546 7.35796C12.1094 7.94906 12.5045 8.68 12.6905 9.47511C12.7213 9.596 12.7277 9.72183 12.7093 9.84521C12.6908 9.9686 12.6479 10.0871 12.5831 10.1937C12.5183 10.3003 12.4329 10.3929 12.3318 10.466C12.2308 10.5392 12.1161 10.5914 11.9946 10.6197C11.8731 10.648 11.7472 10.6517 11.6242 10.6307C11.5012 10.6097 11.3837 10.5644 11.2785 10.4974C11.1732 10.4303 11.0824 10.343 11.0114 10.2404C10.9404 10.1379 10.8905 10.0222 10.8648 9.90011C10.7544 9.43076 10.5206 8.9994 10.1877 8.65064C9.8548 8.30188 9.43476 8.04836 8.97105 7.9163C8.50733 7.78425 8.01675 7.77844 7.55004 7.89948C7.08332 8.02052 6.65741 8.26401 6.31632 8.6048L3.60147 11.3196C3.22304 11.6978 2.96524 12.1796 2.86068 12.7043C2.75611 13.2289 2.80948 13.7728 3.01403 14.2671C3.21858 14.7614 3.56512 15.184 4.00983 15.4813C4.45454 15.7787 4.97745 15.9375 5.51241 15.9376C5.86786 15.9387 6.22 15.8692 6.54841 15.7332C6.87683 15.5972 7.17501 15.3974 7.42569 15.1454L7.82491 14.7454C7.91202 14.6579 8.01556 14.5885 8.12959 14.5411C8.24362 14.4937 8.36588 14.4693 8.48936 14.4693C8.61285 14.4693 8.73511 14.4937 8.84914 14.5411C8.96316 14.5885 9.06671 14.6579 9.15382 14.7454ZM17.7202 3.52901C16.861 2.67004 15.6957 2.1875 14.4808 2.1875C13.2658 2.1875 12.1006 2.67004 11.2413 3.52901L10.8421 3.92823C10.666 4.10435 10.567 4.34322 10.567 4.5923C10.567 4.84137 10.666 5.08024 10.8421 5.25636C11.0182 5.43248 11.2571 5.53142 11.5062 5.53142C11.7552 5.53142 11.9941 5.43248 12.1702 5.25636L12.5702 4.85636C13.0779 4.34872 13.7664 4.06353 14.4843 4.06353C15.2022 4.06353 15.8907 4.34872 16.3983 4.85636C16.906 5.364 17.1912 6.05251 17.1912 6.77042C17.1912 7.48833 16.906 8.17684 16.3983 8.68448L13.6788 11.3954C13.4281 11.6474 13.13 11.8472 12.8015 11.9832C12.4731 12.1192 12.121 12.1887 11.7655 12.1876C11.1558 12.1872 10.564 11.9808 10.0863 11.6019C9.60852 11.2229 9.27278 10.6938 9.1335 10.1001C9.07715 9.85789 8.92687 9.64798 8.71575 9.51656C8.50462 9.38514 8.24994 9.34297 8.00772 9.39933C7.76551 9.45569 7.5556 9.60596 7.42417 9.81708C7.29275 10.0282 7.25058 10.2829 7.30694 10.5251C7.54218 11.5305 8.11015 12.4269 8.91873 13.069C9.72732 13.7111 10.7291 14.0612 11.7616 14.0626H11.7655C12.3674 14.0643 12.9637 13.9466 13.5198 13.7163C14.0759 13.4861 14.5808 13.1478 15.0054 12.7212L17.7202 10.0064C18.1456 9.58108 18.483 9.07618 18.7132 8.52048C18.9434 7.96478 19.0619 7.36918 19.0619 6.76769C19.0619 6.16619 18.9434 5.57059 18.7132 5.01489C18.483 4.45919 18.1456 3.95429 17.7202 3.52901Z" fill="#00B07B"/>
</svg>
