<svg width="24" height="24" viewBox="0 0 24 24" fill="none" xmlns="http://www.w3.org/2000/svg">
<path d="M10.9854 17.6943C11.0902 17.7988 11.1735 17.923 11.2302 18.0597C11.287 18.1965 11.3162 18.3431 11.3162 18.4911C11.3162 18.6392 11.287 18.7858 11.2302 18.9226C11.1735 19.0593 11.0902 19.1835 10.9854 19.288L10.5054 19.768C9.99583 20.2794 9.38996 20.6848 8.7228 20.9606C8.05563 21.2364 7.34041 21.3772 6.61849 21.3749C5.5313 21.3752 4.46843 21.0531 3.56436 20.4493C2.66028 19.8454 1.95562 18.987 1.53952 17.9826C1.12343 16.9782 1.01459 15.8729 1.22679 14.8066C1.43899 13.7404 1.96268 12.761 2.73161 11.9924L5.98942 8.73457C6.68236 8.04174 7.54789 7.5467 8.4964 7.30072C9.44492 7.05473 10.4419 7.06674 11.3843 7.33549C12.3266 7.60425 13.1799 8.11998 13.856 8.82931C14.532 9.53863 15.0062 10.4158 15.2294 11.3699C15.2664 11.515 15.274 11.6659 15.2519 11.814C15.2298 11.9621 15.1783 12.1042 15.1005 12.2321C15.0228 12.3601 14.9202 12.4712 14.799 12.559C14.6777 12.6468 14.5401 12.7095 14.3943 12.7434C14.2485 12.7773 14.0974 12.7818 13.9498 12.7566C13.8023 12.7314 13.6612 12.677 13.5349 12.5966C13.4087 12.5162 13.2997 12.4113 13.2145 12.2883C13.1292 12.1652 13.0694 12.0264 13.0385 11.8799C12.906 11.3167 12.6256 10.799 12.226 10.3805C11.8265 9.96201 11.3225 9.65779 10.766 9.49932C10.2096 9.34085 9.62089 9.33388 9.06083 9.47913C8.50077 9.62438 7.98967 9.91657 7.58036 10.3255L4.32255 13.5833C3.86843 14.0371 3.55907 14.6153 3.43359 15.2449C3.30812 15.8744 3.37216 16.5271 3.61762 17.1203C3.86308 17.7134 4.27893 18.2205 4.81258 18.5773C5.34623 18.9341 5.97372 19.1247 6.61567 19.1249C7.04222 19.1261 7.46478 19.0428 7.85888 18.8796C8.25298 18.7164 8.6108 18.4767 8.91161 18.1743L9.39067 17.6943C9.49521 17.5892 9.61946 17.5059 9.75629 17.449C9.89312 17.3922 10.0398 17.3629 10.188 17.3629C10.3362 17.3629 10.4829 17.3922 10.6197 17.449C10.7566 17.5059 10.8808 17.5892 10.9854 17.6943ZM21.2651 4.23457C20.2339 3.20381 18.8357 2.62476 17.3777 2.62476C15.9197 2.62476 14.5215 3.20381 13.4904 4.23457L13.0113 4.71363C12.8 4.92498 12.6812 5.21162 12.6812 5.51051C12.6812 5.8094 12.8 6.09604 13.0113 6.30738C13.2226 6.51873 13.5093 6.63746 13.8082 6.63746C14.1071 6.63746 14.3937 6.51873 14.605 6.30738L15.0851 5.82739C15.6942 5.21822 16.5204 4.87599 17.3819 4.87599C18.2434 4.87599 19.0696 5.21822 19.6788 5.82739C20.288 6.43655 20.6302 7.26276 20.6302 8.12426C20.6302 8.98576 20.288 9.81197 19.6788 10.4211L16.4154 13.6743C16.1145 13.9767 15.7567 14.2164 15.3626 14.3796C14.9685 14.5428 14.546 14.6261 14.1194 14.6249C13.3877 14.6244 12.6776 14.3767 12.1043 13.922C11.531 13.4673 11.1281 12.8323 10.961 12.1199C10.8934 11.8292 10.713 11.5773 10.4597 11.4196C10.2063 11.2619 9.90071 11.2113 9.61005 11.2789C9.31939 11.3466 9.0675 11.5269 8.90979 11.7803C8.75209 12.0336 8.70148 12.3392 8.76911 12.6299C9.0514 13.8363 9.73296 14.912 10.7033 15.6826C11.6736 16.4531 12.8757 16.8732 14.1147 16.8749H14.1194C14.8417 16.8769 15.5572 16.7356 16.2245 16.4593C16.8918 16.183 17.4978 15.7772 18.0072 15.2652L21.2651 12.0074C21.7755 11.4971 22.1804 10.8912 22.4567 10.2243C22.7329 9.5575 22.8751 8.84277 22.8751 8.12098C22.8751 7.39918 22.7329 6.68446 22.4567 6.01762C22.1804 5.35079 21.7755 4.7449 21.2651 4.23457Z" fill="black"/>
</svg>
