<svg width="18" height="18" viewBox="0 0 24 24" fill="none" xmlns="http://www.w3.org/2000/svg">
<path d="M6.31328 6.17605C6.06328 5.53805 6.07328 4.80905 6.18428 4.14205C6.94823 4.37161 7.66584 4.7338 8.30428 5.21205C8.58428 5.42605 8.95128 5.49505 9.29328 5.39205C10.1707 5.12888 11.0822 4.99678 11.9983 5.00005C12.9593 5.00005 13.8723 5.14005 14.7013 5.39105C15.0433 5.49505 15.4103 5.42505 15.6893 5.21105C16.3274 4.7329 17.0447 4.37072 17.8083 4.14105C17.9193 4.80805 17.9283 5.53705 17.6803 6.17405C17.5303 6.55805 17.6053 7.00005 17.8883 7.31405C18.6123 8.11705 18.9983 9.04005 18.9983 10.0001C18.9983 12.1141 17.0283 14.1871 13.8643 14.8181C13.0723 14.9761 12.7633 15.9731 13.3693 16.5441C13.7583 16.9101 13.9983 17.4261 13.9983 18.0001V21.0001C13.9983 21.2653 14.1036 21.5196 14.2912 21.7072C14.4787 21.8947 14.7331 22.0001 14.9983 22.0001C15.2635 22.0001 15.5178 21.8947 15.7054 21.7072C15.8929 21.5196 15.9983 21.2653 15.9983 21.0001V18.0001C15.9983 17.4301 15.8783 16.8881 15.6643 16.3971C18.6813 15.3501 20.9983 12.9931 20.9983 10.0001C20.9983 8.65305 20.5143 7.41505 19.7113 6.37805C19.9213 5.55805 19.9023 4.73205 19.8223 4.09805C19.7513 3.53005 19.6523 2.78605 19.2523 2.34205C18.6573 1.68305 17.6723 2.07105 16.9723 2.31005C16.221 2.56327 15.5065 2.91464 14.8473 3.35505C13.9164 3.11713 12.9591 2.99785 11.9983 3.00005C11.0043 3.00005 10.0453 3.12505 9.14728 3.35605C8.48806 2.91564 7.77354 2.56427 7.02228 2.31105C6.32228 2.07105 5.33628 1.68305 4.74128 2.34205C4.33328 2.79405 4.24828 3.47905 4.17528 4.06105L4.17028 4.09905C4.09028 4.73405 4.07228 5.56105 4.28228 6.38205C3.48228 7.41805 2.99828 8.65405 2.99828 10.0001C2.99828 12.9921 5.31528 15.3501 8.33228 16.3971C8.11428 16.8965 8.00062 17.4351 7.99828 17.9801L7.83028 18.0141C7.11328 18.1131 6.65428 18.0241 6.34228 17.8921C5.58228 17.5701 5.19028 16.7591 4.71228 16.1391C4.41428 15.7541 3.98028 15.2731 3.31428 15.0511C3.18965 15.0096 3.05807 14.993 2.92706 15.0024C2.79604 15.0117 2.66814 15.0468 2.55068 15.1056C2.31344 15.2243 2.13308 15.4324 2.04928 15.6841C1.96547 15.9357 1.98508 16.2104 2.10379 16.4477C2.2225 16.6849 2.43059 16.8652 2.68228 16.9491C3.24028 17.1351 3.62628 18.0911 3.98028 18.5151C4.35328 18.9631 4.84928 19.4311 5.56028 19.7331C6.24228 20.0231 7.04328 20.1261 7.99828 20.0091V21.0001C7.99828 21.2653 8.10363 21.5196 8.29117 21.7072C8.47871 21.8947 8.73306 22.0001 8.99828 22.0001C9.26349 22.0001 9.51785 21.8947 9.70538 21.7072C9.89292 21.5196 9.99828 21.2653 9.99828 21.0001V18.0001C9.99828 17.4261 10.2383 16.9101 10.6273 16.5441C11.2343 15.9721 10.9243 14.9761 10.1323 14.8181C6.96728 14.1871 4.99828 12.1141 4.99828 10.0001C4.99828 9.04205 5.38328 8.11905 6.10628 7.31605C6.38928 7.00205 6.46328 6.56005 6.31328 6.17605Z" fill="black"/>
</svg>
