<svg width="20" height="20" viewBox="0 0 20 20" fill="none" xmlns="http://www.w3.org/2000/svg">
<path d="M5.26009 5.14663C5.05175 4.61496 5.06009 4.00746 5.15259 3.45163C5.78922 3.64293 6.38722 3.94475 6.91925 4.34329C7.15259 4.52163 7.45842 4.57913 7.74342 4.49329C8.47462 4.27398 9.23421 4.1639 9.99759 4.16663C10.7984 4.16663 11.5593 4.28329 12.2501 4.49246C12.5351 4.57913 12.8409 4.52079 13.0734 4.34246C13.6052 3.944 14.2029 3.64218 14.8393 3.45079C14.9318 4.00663 14.9393 4.61413 14.7326 5.14496C14.6076 5.46496 14.6701 5.83329 14.9059 6.09496C15.5093 6.76413 15.8309 7.5333 15.8309 8.3333C15.8309 10.095 14.1893 11.8225 11.5526 12.3483C10.8926 12.48 10.6351 13.3108 11.1401 13.7866C11.4643 14.0916 11.6643 14.5216 11.6643 15V17.5C11.6643 17.721 11.7521 17.9329 11.9083 18.0892C12.0646 18.2455 12.2766 18.3333 12.4976 18.3333C12.7186 18.3333 12.9306 18.2455 13.0868 18.0892C13.2431 17.9329 13.3309 17.721 13.3309 17.5V15C13.3309 14.525 13.2309 14.0733 13.0526 13.6641C15.5668 12.7916 17.4976 10.8275 17.4976 8.3333C17.4976 7.2108 17.0943 6.17913 16.4251 5.31496C16.6001 4.63163 16.5843 3.94329 16.5176 3.41496C16.4584 2.94163 16.3759 2.32163 16.0426 1.95163C15.5468 1.40246 14.7259 1.72579 14.1426 1.92496C13.5165 2.13598 12.9211 2.42879 12.3718 2.79579C11.596 2.59753 10.7983 2.49813 9.99759 2.49996C9.16925 2.49996 8.37009 2.60413 7.62175 2.79663C7.07241 2.42962 6.47698 2.13681 5.85092 1.92579C5.26759 1.72579 4.44592 1.40246 3.95009 1.95163C3.61009 2.32829 3.53925 2.89913 3.47842 3.38413L3.47425 3.41579C3.40759 3.94496 3.39259 4.63413 3.56759 5.3183C2.90092 6.18163 2.49759 7.21163 2.49759 8.3333C2.49759 10.8266 4.42842 12.7916 6.94259 13.6641C6.76092 14.0803 6.66621 14.5292 6.66425 14.9833L6.52425 15.0116C5.92675 15.0941 5.54425 15.02 5.28425 14.91C4.65092 14.6416 4.32425 13.9658 3.92592 13.4491C3.67759 13.1283 3.31592 12.7275 2.76092 12.5425C2.65707 12.5079 2.54742 12.4941 2.43824 12.5019C2.32905 12.5097 2.22248 12.5389 2.12459 12.5879C1.92689 12.6868 1.77659 12.8602 1.70675 13.07C1.63691 13.2797 1.65325 13.5086 1.75218 13.7063C1.8511 13.904 2.02451 14.0543 2.23425 14.1241C2.69925 14.2791 3.02092 15.0758 3.31592 15.4291C3.62675 15.8025 4.04009 16.1925 4.63259 16.4441C5.20092 16.6858 5.86842 16.7716 6.66425 16.6741V17.5C6.66425 17.721 6.75205 17.9329 6.90833 18.0892C7.06461 18.2455 7.27657 18.3333 7.49759 18.3333C7.7186 18.3333 7.93056 18.2455 8.08684 18.0892C8.24312 17.9329 8.33092 17.721 8.33092 17.5V15C8.33092 14.5216 8.53092 14.0916 8.85509 13.7866C9.36092 13.31 9.10259 12.48 8.44259 12.3483C5.80509 11.8225 4.16425 10.095 4.16425 8.3333C4.16425 7.53496 4.48509 6.76579 5.08759 6.09663C5.32342 5.83496 5.38509 5.46663 5.26009 5.14663Z" fill="#00B07B"/>
</svg>
