<svg width="36" height="42" viewBox="0 0 42 48" fill="none" xmlns="http://www.w3.org/2000/svg">
<g clip-path="url(#clip0_638_38)">
<g clip-path="url(#clip1_638_38)">
<path d="M32.8379 21C33.6943 21.25 34.5097 21.5893 35.2841 22.0179C36.0586 22.4464 36.8694 23.0982 37.7167 23.9732C38.564 24.8482 39.2883 25.8795 39.8896 27.067C40.4909 28.2545 40.992 29.7902 41.3929 31.6741C41.7938 33.558 41.9942 35.6696 41.9942 38.0089C41.9942 40.7589 41.0832 43.1116 39.261 45.067C37.4388 47.0223 35.2431 48 32.6739 48H9.33205C6.76281 48 4.56711 47.0223 2.74496 45.067C0.922798 43.1116 0.0117188 40.7589 0.0117188 38.0089C0.0117188 35.6696 0.212156 33.558 0.613031 31.6741C1.01391 29.7902 1.515 28.2545 2.11631 27.067C2.71762 25.8795 3.44193 24.8482 4.28923 23.9732C5.13654 23.0982 5.9474 22.4464 6.72181 22.0179C7.49623 21.5893 8.31165 21.25 9.16806 21C7.72856 18.7679 7.0088 16.3393 7.0088 13.7143C7.0088 11.8571 7.37779 10.0848 8.11576 8.39732C8.85374 6.70982 9.85137 5.25 11.1087 4.01786C12.3659 2.78571 13.8556 1.80804 15.5775 1.08482C17.2994 0.361607 19.1079 0 21.003 0C22.898 0 24.7065 0.361607 26.4284 1.08482C28.1504 1.80804 29.64 2.78571 30.8973 4.01786C32.1546 5.25 33.1522 6.70982 33.8902 8.39732C34.6282 10.0848 34.9971 11.8571 34.9971 13.7143C34.9971 16.3393 34.2774 18.7679 32.8379 21ZM21.003 3.42857C18.1057 3.42857 15.6322 4.43304 13.5822 6.44196C11.5323 8.45089 10.5073 10.875 10.5073 13.7143C10.5073 16.5536 11.5323 18.9777 13.5822 20.9866C15.6322 22.9955 18.1057 24 21.003 24C23.9002 24 26.3738 22.9955 28.4237 20.9866C30.4736 18.9777 31.4986 16.5536 31.4986 13.7143C31.4986 10.875 30.4736 8.45089 28.4237 6.44196C26.3738 4.43304 23.9002 3.42857 21.003 3.42857ZM32.6739 44.5714C34.2774 44.5714 35.6486 43.933 36.7874 42.6563C37.9263 41.3795 38.4957 39.8304 38.4957 38.0089C38.4957 33.7411 37.7805 30.375 36.3501 27.9107C34.9197 25.4464 32.8652 24.1518 30.1866 24.0268C27.5445 26.2946 24.4833 27.4286 21.003 27.4286C17.5227 27.4286 14.4614 26.2946 11.8193 24.0268C9.14073 24.1518 7.08625 25.4464 5.65585 27.9107C4.22546 30.375 3.51026 33.7411 3.51026 38.0089C3.51026 39.8304 4.07969 41.3795 5.21853 42.6563C6.35738 43.933 7.72856 44.5714 9.33205 44.5714H32.6739Z" fill="black"/>
</g>
</g>
<defs>
<clipPath id="clip0_638_38">
<rect width="42" height="48" fill="white"/>
</clipPath>
<clipPath id="clip1_638_38">
<rect width="42" height="48" fill="white"/>
</clipPath>
</defs>
</svg>
