<svg width="45" height="45" viewBox="0 0 30 30" fill="none" xmlns="http://www.w3.org/2000/svg">
<path d="M25 7.5C25.725 7.5 26.3125 7.75 26.775 8.2375C27.25 8.75 27.5 9.3125 27.5 10V23.75C27.5 24.4375 27.25 25 26.775 25.5125C26.3125 26 25.725 26.25 25 26.25H5C4.275 26.25 3.6875 26 3.225 25.5125C2.75 25 2.5 24.4375 2.5 23.75V10C2.5 9.3125 2.75 8.75 3.225 8.2375C3.6875 7.75 4.275 7.5 5 7.5H10V5C10 4.275 10.25 3.6875 10.725 3.225C11.1875 2.75 11.775 2.5 12.5 2.5H17.5C18.225 2.5 18.8125 2.75 19.275 3.225C19.75 3.6875 20 4.275 20 5V7.5H25ZM5 10V23.75H25V10H5ZM17.5 7.5V5H12.5V7.5H17.5Z" fill="black"/>
</svg>
