<svg width="23" height="23" viewBox="0 0 30 30" fill="none" xmlns="http://www.w3.org/2000/svg">
<g clip-path="url(#clip0_200_36)">
<path d="M13.5938 4.21875V2.34375C13.5938 1.97079 13.7419 1.6131 14.0056 1.34938C14.2694 1.08566 14.627 0.9375 15 0.9375C15.373 0.9375 15.7306 1.08566 15.9944 1.34938C16.2581 1.6131 16.4062 1.97079 16.4062 2.34375V4.21875C16.4062 4.59171 16.2581 4.9494 15.9944 5.21312C15.7306 5.47684 15.373 5.625 15 5.625C14.627 5.625 14.2694 5.47684 14.0056 5.21312C13.7419 4.9494 13.5938 4.59171 13.5938 4.21875ZM22.9688 15C22.9688 16.5761 22.5014 18.1167 21.6258 19.4272C20.7502 20.7377 19.5056 21.759 18.0495 22.3622C16.5934 22.9653 14.9912 23.1231 13.4454 22.8156C11.8996 22.5082 10.4797 21.7492 9.36524 20.6348C8.25079 19.5203 7.49184 18.1004 7.18437 16.5546C6.87689 15.0088 7.0347 13.4066 7.63784 11.9505C8.24097 10.4944 9.26235 9.24984 10.5728 8.37423C11.8833 7.49861 13.4239 7.03125 15 7.03125C17.1128 7.03342 19.1384 7.87368 20.6324 9.36764C22.1263 10.8616 22.9666 12.8872 22.9688 15ZM20.1562 15C20.1562 13.9802 19.8538 12.9833 19.2873 12.1353C18.7207 11.2874 17.9154 10.6265 16.9732 10.2362C16.031 9.84598 14.9943 9.74387 13.9941 9.94283C12.9939 10.1418 12.0751 10.6329 11.354 11.354C10.6329 12.0751 10.1418 12.9939 9.94283 13.9941C9.74387 14.9943 9.84598 16.031 10.2362 16.9732C10.6265 17.9154 11.2874 18.7207 12.1353 19.2873C12.9833 19.8538 13.9802 20.1562 15 20.1562C16.367 20.1547 17.6777 19.611 18.6443 18.6443C19.611 17.6777 20.1547 16.367 20.1562 15ZM6.03633 8.02617C6.16714 8.15698 6.32243 8.26074 6.49334 8.33154C6.66425 8.40233 6.84743 8.43877 7.03242 8.43877C7.21741 8.43877 7.40059 8.40233 7.5715 8.33154C7.74241 8.26074 7.89771 8.15698 8.02852 8.02617C8.15932 7.89536 8.26309 7.74007 8.33388 7.56916C8.40467 7.39825 8.44111 7.21507 8.44111 7.03008C8.44111 6.84509 8.40467 6.66191 8.33388 6.491C8.26309 6.32009 8.15932 6.16479 8.02852 6.03398L6.62227 4.62773C6.35808 4.36355 5.99978 4.21514 5.62617 4.21514C5.25256 4.21514 4.89426 4.36355 4.63008 4.62773C4.3659 4.89192 4.21748 5.25022 4.21748 5.62383C4.21748 5.99744 4.3659 6.35574 4.63008 6.61992L6.03633 8.02617ZM6.03633 21.9715L4.63008 23.3777C4.49927 23.5085 4.39551 23.6638 4.32471 23.8347C4.25392 24.0057 4.21748 24.1888 4.21748 24.3738C4.21748 24.5588 4.25392 24.742 4.32471 24.9129C4.39551 25.0838 4.49927 25.2391 4.63008 25.3699C4.89426 25.6341 5.25256 25.7825 5.62617 25.7825C5.81116 25.7825 5.99434 25.7461 6.16525 25.6753C6.33616 25.6045 6.49146 25.5007 6.62227 25.3699L8.02852 23.9637C8.2927 23.6995 8.44111 23.3412 8.44111 22.9676C8.44111 22.594 8.2927 22.2357 8.02852 21.9715C7.76434 21.7073 7.40603 21.5589 7.03242 21.5589C6.65881 21.5589 6.30051 21.7073 6.03633 21.9715ZM22.9688 8.4375C23.1535 8.43765 23.3364 8.40139 23.5071 8.33082C23.6778 8.26024 23.833 8.15672 23.9637 8.02617L25.3699 6.61992C25.5007 6.48911 25.6045 6.33382 25.6753 6.16291C25.7461 5.992 25.7825 5.80882 25.7825 5.62383C25.7825 5.43884 25.7461 5.25566 25.6753 5.08475C25.6045 4.91384 25.5007 4.75854 25.3699 4.62773C25.2391 4.49693 25.0838 4.39316 24.9129 4.32237C24.742 4.25158 24.5588 4.21514 24.3738 4.21514C24.1888 4.21514 24.0057 4.25158 23.8347 4.32237C23.6638 4.39316 23.5085 4.49693 23.3777 4.62773L21.9715 6.03398C21.7736 6.23067 21.6388 6.48176 21.584 6.75531C21.5293 7.02886 21.5571 7.31252 21.6641 7.57019C21.771 7.82787 21.9521 8.04792 22.1844 8.20236C22.4168 8.3568 22.6898 8.43865 22.9688 8.4375ZM23.9637 21.9738C23.6995 21.7096 23.3412 21.5612 22.9676 21.5612C22.594 21.5612 22.2357 21.7096 21.9715 21.9738C21.7073 22.238 21.5589 22.5963 21.5589 22.9699C21.5589 23.3435 21.7073 23.7018 21.9715 23.966L23.3777 25.3723C23.6419 25.6364 24.0002 25.7849 24.3738 25.7849C24.7474 25.7849 25.1057 25.6364 25.3699 25.3723C25.6341 25.1081 25.7825 24.7498 25.7825 24.3762C25.7825 24.0026 25.6341 23.6443 25.3699 23.3801L23.9637 21.9738ZM5.625 15C5.625 14.627 5.47684 14.2694 5.21312 14.0056C4.9494 13.7419 4.59171 13.5938 4.21875 13.5938H2.34375C1.97079 13.5938 1.6131 13.7419 1.34938 14.0056C1.08566 14.2694 0.9375 14.627 0.9375 15C0.9375 15.373 1.08566 15.7306 1.34938 15.9944C1.6131 16.2581 1.97079 16.4062 2.34375 16.4062H4.21875C4.59171 16.4062 4.9494 16.2581 5.21312 15.9944C5.47684 15.7306 5.625 15.373 5.625 15ZM15 24.375C14.627 24.375 14.2694 24.5232 14.0056 24.7869C13.7419 25.0506 13.5938 25.4083 13.5938 25.7812V27.6562C13.5938 28.0292 13.7419 28.3869 14.0056 28.6506C14.2694 28.9143 14.627 29.0625 15 29.0625C15.373 29.0625 15.7306 28.9143 15.9944 28.6506C16.2581 28.3869 16.4062 28.0292 16.4062 27.6562V25.7812C16.4062 25.4083 16.2581 25.0506 15.9944 24.7869C15.7306 24.5232 15.373 24.375 15 24.375ZM27.6562 13.5938H25.7812C25.4083 13.5938 25.0506 13.7419 24.7869 14.0056C24.5232 14.2694 24.375 14.627 24.375 15C24.375 15.373 24.5232 15.7306 24.7869 15.9944C25.0506 16.2581 25.4083 16.4062 25.7812 16.4062H27.6562C28.0292 16.4062 28.3869 16.2581 28.6506 15.9944C28.9143 15.7306 29.0625 15.373 29.0625 15C29.0625 14.627 28.9143 14.2694 28.6506 14.0056C28.3869 13.7419 28.0292 13.5938 27.6562 13.5938Z" fill="black"/>
</g>
<defs>
<clipPath id="clip0_200_36">
<rect width="30" height="30" fill="white"/>
</clipPath>
</defs>
</svg>
